<?xml version="1.0" encoding="utf-8"?><svg xmlns="http://www.w3.org/2000/svg" xmlns:xlink="http://www.w3.org/1999/xlink"><symbol viewBox="0 0 39 15" id="Arrow" xmlns="http://www.w3.org/2000/svg"><path d="M37.965 8.207a1 1 0 000-1.414L31.601.429a1 1 0 10-1.414 1.414L35.844 7.5l-5.657 5.657A1 1 0 1031.6 14.57l6.364-6.364zM.993 8.5h36.265v-2H.993v2z"/></symbol><symbol viewBox="0 -77 512.002 512" id="contactyoutube" xmlns="http://www.w3.org/2000/svg"><path class="bcontactyoutube" d="M501.453 56.094c-5.902-21.934-23.195-39.223-45.125-45.13C416.262 0 255.996 0 255.996 0S95.734 0 55.668 10.547C34.16 16.449 16.445 34.164 10.543 56.094 0 96.156 0 179.242 0 179.242s0 83.504 10.543 123.149c5.906 21.93 23.195 39.222 45.129 45.129C96.156 358.484 256 358.484 256 358.484s160.262 0 200.328-10.546c21.934-5.903 39.223-23.196 45.129-45.125C512 262.745 512 179.663 512 179.663s.422-83.508-10.547-123.57zm0 0"/><path d="M204.969 256l133.27-76.758-133.27-76.758zm0 0"/></symbol><symbol viewBox="0 0 512 512" id="email" xmlns="http://www.w3.org/2000/svg"><path d="M339.392 258.624L512 367.744V144.896zM0 144.896v222.848l172.608-109.12zM480 80H32C16.032 80 3.36 91.904.96 107.232L256 275.264l255.04-168.032C508.64 91.904 495.968 80 480 80zM310.08 277.952l-45.28 29.824a15.983 15.983 0 01-8.8 2.624c-3.072 0-6.112-.864-8.8-2.624l-45.28-29.856L1.024 404.992C3.488 420.192 16.096 432 32 432h448c15.904 0 28.512-11.808 30.976-27.008L310.08 277.952z"/></symbol><symbol viewBox="0 0 512.001 512.001" id="instagram" xmlns="http://www.w3.org/2000/svg"><path d="M373.406 0H138.594C62.172 0 0 62.172 0 138.594V373.41C0 449.828 62.172 512 138.594 512H373.41C449.828 512 512 449.828 512 373.41V138.594C512 62.172 449.828 0 373.406 0zm108.578 373.41c0 59.867-48.707 108.574-108.578 108.574H138.594c-59.871 0-108.578-48.707-108.578-108.574V138.594c0-59.871 48.707-108.578 108.578-108.578H373.41c59.867 0 108.574 48.707 108.574 108.578zm0 0"/><path d="M256 116.004c-77.195 0-139.996 62.8-139.996 139.996S178.804 395.996 256 395.996 395.996 333.196 395.996 256 333.196 116.004 256 116.004zm0 249.976c-60.64 0-109.98-49.335-109.98-109.98 0-60.64 49.34-109.98 109.98-109.98 60.645 0 109.98 49.34 109.98 109.98 0 60.645-49.335 109.98-109.98 109.98zM399.344 66.285c-22.813 0-41.367 18.559-41.367 41.367 0 22.813 18.554 41.371 41.367 41.371s41.37-18.558 41.37-41.37-18.558-41.368-41.37-41.368zm0 52.719c-6.258 0-11.352-5.094-11.352-11.352 0-6.261 5.094-11.351 11.352-11.351 6.261 0 11.355 5.09 11.355 11.351 0 6.258-5.094 11.352-11.355 11.352zm0 0"/></symbol><symbol viewBox="0 0 513.64 513.64" id="phone" xmlns="http://www.w3.org/2000/svg"><path d="M499.66 376.96l-71.68-71.68c-25.6-25.6-69.12-15.359-79.36 17.92-7.68 23.041-33.28 35.841-56.32 30.72-51.2-12.8-120.32-79.36-133.12-133.12-7.68-23.041 7.68-48.641 30.72-56.32 33.28-10.24 43.52-53.76 17.92-79.36l-71.68-71.68c-20.48-17.92-51.2-17.92-69.12 0L18.38 62.08c-48.64 51.2 5.12 186.88 125.44 307.2s256 176.641 307.2 125.44l48.64-48.64c17.921-20.48 17.921-51.2 0-69.12z"/></symbol><symbol viewBox="0 -39 512 512" id="telegram" xmlns="http://www.w3.org/2000/svg"><path d="M504.094 11.86C497.84 4.21 488.473 0 477.714 0c-5.847 0-12.042 1.23-18.41 3.664L25.907 169.105c-23 8.778-26.097 21.95-25.898 29.02s4.039 20.047 27.5 27.512c.14.043.281.086.422.125l89.898 25.726 48.617 139.024c6.63 18.953 21.508 30.726 38.836 30.726 10.926 0 21.672-4.578 31.078-13.234l55.606-51.2 80.652 64.942c.008.008.02.012.028.02l.765.617.215.168c8.965 6.953 18.75 10.625 28.309 10.629h.003c18.676 0 33.547-13.825 37.88-35.215l71.011-350.64c2.852-14.075.461-26.669-6.734-35.466zM147.902 246.601l173.442-88.606L213.348 272.75a14.975 14.975 0 00-3.641 6.684l-20.824 84.351zm68.133 139.332c-.719.66-1.441 1.25-2.164 1.793l19.32-78.25 35.145 28.3zm265.39-344.567l-71.01 350.645c-.685 3.355-2.868 11.164-8.481 11.164-2.774 0-6.258-1.512-9.825-4.258l-91.39-73.586a.173.173 0 00-.043-.031l-54.38-43.79 156.177-165.949a15 15 0 00-17.746-23.636L127.859 223.152l-91.12-26.07 433.265-165.39c3.66-1.399 6.215-1.692 7.71-1.692.919 0 2.552.11 3.157.855.797.973 1.813 4.29.555 10.512zm0 0"/></symbol><symbol viewBox="0 0 35 35" id="titleplus" xmlns="http://www.w3.org/2000/svg"><path d="M17.5 0C7.85 0 0 7.85 0 17.5S7.85 35 17.5 35 35 27.15 35 17.5 27.15 0 17.5 0zm0 33.542c-8.845 0-16.042-7.197-16.042-16.042 0-8.845 7.197-16.042 16.042-16.042 8.845 0 16.042 7.197 16.042 16.042 0 8.845-7.197 16.042-16.042 16.042z"/><path d="M26.98 16.77h-8.75V8.02a.729.729 0 10-1.46 0v8.75H8.02a.729.729 0 100 1.46h8.75v8.75a.729.729 0 101.46 0v-8.75h8.75a.729.729 0 100-1.46z"/></symbol><symbol viewBox="0 0 89 50" id="vk" xmlns="http://www.w3.org/2000/svg"><path d="M88.528 44.78a5.811 5.811 0 00-.301-.56c-1.544-2.688-4.495-5.986-8.851-9.897l-.092-.09-.046-.043-.047-.045h-.047c-1.976-1.821-3.228-3.045-3.752-3.672-.96-1.194-1.174-2.403-.65-3.628.37-.925 1.761-2.88 4.17-5.865 1.267-1.582 2.27-2.85 3.012-3.806 5.345-6.866 7.662-11.253 6.951-13.164l-.276-.446c-.186-.27-.664-.515-1.436-.74-.773-.223-1.761-.26-2.966-.111l-13.346.089c-.216-.074-.524-.067-.927.023l-.602.134-.233.112-.184.135c-.154.09-.324.246-.51.47a3.048 3.048 0 00-.462.783c-1.453 3.612-3.105 6.97-4.959 10.075a95.047 95.047 0 01-3.151 4.814c-.958 1.357-1.761 2.358-2.41 3-.649.641-1.234 1.155-1.76 1.544-.526.388-.927.553-1.205.492-.278-.06-.54-.12-.788-.179a3.018 3.018 0 01-1.042-1.097c-.264-.462-.44-1.045-.534-1.746a18.62 18.62 0 01-.162-1.814 36.663 36.663 0 01.024-2.15c.032-.925.046-1.551.046-1.88 0-1.134.023-2.366.069-3.694.047-1.328.085-2.38.116-3.156.032-.776.046-1.598.046-2.463 0-.866-.054-1.545-.162-2.038a6.8 6.8 0 00-.485-1.433 2.438 2.438 0 00-.95-1.074c-.417-.254-.936-.455-1.552-.605C47.436.697 45.35.503 42.817.473c-5.745-.06-9.437.3-11.075 1.075a6.214 6.214 0 00-1.76 1.343c-.556.657-.634 1.016-.233 1.075 1.854.268 3.167.91 3.939 1.925l.278.537c.217.388.433 1.075.65 2.06a20.1 20.1 0 01.416 3.268c.154 2.18.154 4.045 0 5.597-.154 1.553-.3 2.762-.44 3.627-.14.866-.348 1.568-.626 2.105-.278.537-.463.865-.556.985-.093.119-.17.194-.231.223-.402.15-.82.225-1.252.225-.433 0-.957-.21-1.575-.628-.618-.418-1.259-.992-1.923-1.723-.664-.732-1.413-1.754-2.248-3.068-.834-1.313-1.699-2.865-2.595-4.656l-.74-1.3a110.399 110.399 0 01-1.9-3.648 69.117 69.117 0 01-2.132-4.635c-.247-.627-.618-1.104-1.112-1.433l-.232-.134c-.154-.12-.402-.246-.741-.38a5.053 5.053 0 00-1.066-.292l-12.697.09c-1.297 0-2.178.283-2.641.85l-.186.269C.047 3.98 0 4.218 0 4.547c0 .328.093.731.278 1.208a145.64 145.64 0 006.047 12.18c2.178 3.91 4.07 7.06 5.676 9.447a111.604 111.604 0 004.912 6.761c1.669 2.12 2.773 3.478 3.313 4.075.541.598.966 1.045 1.275 1.343l1.159 1.075c.741.716 1.83 1.574 3.266 2.574 1.437 1 3.028 1.986 4.773 2.956 1.746.97 3.777 1.76 6.094 2.373 2.317.612 4.572.858 6.766.74h5.329c1.08-.09 1.9-.42 2.456-.986l.184-.224c.124-.179.24-.456.347-.828a4.38 4.38 0 00.163-1.231c-.032-1.284.069-2.44.3-3.47.231-1.03.494-1.806.789-2.328.294-.523.626-.963.996-1.32.37-.359.634-.576.789-.65a3.1 3.1 0 01.37-.157c.74-.239 1.613-.007 2.618.695 1.004.701 1.946 1.567 2.827 2.597a80.482 80.482 0 003.174 3.47c1.236 1.283 2.317 2.238 3.243 2.866l.927.537c.619.358 1.422.687 2.41.985.988.299 1.852.373 2.595.224l11.862-.179c1.173 0 2.086-.187 2.734-.56.649-.373 1.034-.784 1.159-1.231.124-.448.13-.956.023-1.523-.11-.567-.218-.963-.326-1.186z"/></symbol><symbol viewBox="0 0 65 65" id="whatsapp" xmlns="http://www.w3.org/2000/svg"><path d="M32.508 0h-.016C14.572 0 0 14.576 0 32.5a32.26 32.26 0 006.187 19.05l-4.05 12.073 12.492-3.994A32.218 32.218 0 0032.51 65C50.427 65 65 50.42 65 32.5S50.428 0 32.508 0zM51.42 45.894c-.784 2.214-3.896 4.05-6.378 4.587-1.698.361-3.916.65-11.383-2.446-9.551-3.957-15.702-13.662-16.181-14.292-.46-.63-3.86-5.139-3.86-9.803 0-4.663 2.369-6.934 3.324-7.91.784-.8 2.08-1.165 3.323-1.165.402 0 .764.02 1.088.036.955.04 1.435.098 2.064 1.605.784 1.889 2.694 6.553 2.921 7.032.232.48.463 1.13.138 1.76-.304.65-.573.938-1.052 1.49-.48.553-.934.975-1.414 1.568-.438.516-.934 1.069-.381 2.023.552.935 2.461 4.05 5.273 6.553 3.627 3.23 6.569 4.262 7.62 4.7.785.326 1.72.248 2.292-.361.727-.784 1.625-2.084 2.54-3.364.65-.918 1.47-1.032 2.331-.707.878.305 5.521 2.6 6.476 3.076.954.479 1.584.706 1.816 1.109.227.402.227 2.29-.557 4.51z"/></symbol><symbol viewBox="0 -62 512.002 512" id="youtube" xmlns="http://www.w3.org/2000/svg"><path d="M334.809 170.992l-113.114-61.89c-6.504-3.559-14.191-3.426-20.566.351-6.379 3.781-10.184 10.461-10.184 17.875v122.719c0 7.379 3.782 14.047 10.118 17.832 3.308 1.976 6.976 2.969 10.652 2.969a20.74 20.74 0 009.848-2.504L334.68 207.52a20.772 20.772 0 0010.937-18.223 20.763 20.763 0 00-10.808-18.305zm-113.86 63.617v-91.718l84.54 46.257zm0 0"/><path d="M508.234 91.527l-.023-.234c-.434-4.121-4.75-40.777-22.57-59.422C465.043 9.941 441.69 7.277 430.46 6a135.45 135.45 0 01-2.543-.305l-.895-.093C359.336.68 257.113.008 256.09.004L256 0l-.09.004C254.887.008 152.664.68 84.367 5.602l-.902.093c-.727.098-1.528.188-2.399.29-11.101 1.28-34.203 3.949-54.859 26.671C9.234 51.102 4.328 86.973 3.824 91.004l-.058.523C3.613 93.242 0 134.067 0 175.051v38.312c0 40.985 3.613 81.809 3.766 83.528l.027.257c.434 4.055 4.746 40.04 22.484 58.692 19.368 21.195 43.856 24 57.028 25.508 2.082.238 3.875.441 5.097.656l1.184.164c39.082 3.719 161.617 5.55 166.812 5.625l.157.004.156-.004c1.023-.004 103.242-.676 170.93-5.598l.894-.093c.856-.114 1.817-.215 2.871-.325 11.04-1.172 34.016-3.605 54.387-26.02 16.973-18.448 21.883-54.32 22.383-58.347l.058-.523c.153-1.719 3.77-42.54 3.77-83.524v-38.312c-.004-40.985-3.617-81.805-3.77-83.524zm-26.238 121.836c0 37.934-3.312 77-3.625 80.586-1.273 9.88-6.45 32.574-14.719 41.563-12.75 14.027-25.847 15.418-35.41 16.43a164.16 164.16 0 00-3.195.359c-65.469 4.734-163.832 5.46-168.363 5.488-5.082-.074-125.825-1.922-163.715-5.441-1.942-.317-4.04-.559-6.25-.809-11.215-1.285-26.567-3.043-38.371-16.027l-.278-.297c-8.125-8.465-13.152-29.688-14.43-41.149-.238-2.71-3.636-42.238-3.636-80.703v-38.312c0-37.89 3.305-76.914 3.625-80.574 1.52-11.637 6.793-32.957 14.719-41.575 13.14-14.453 26.996-16.054 36.16-17.113.875-.102 1.691-.195 2.445-.293 66.422-4.758 165.492-5.465 169.047-5.492 3.555.023 102.59.734 168.422 5.492.808.102 1.691.203 2.64.313 9.426 1.074 23.672 2.699 36.747 16.644l.12.129c8.126 8.465 13.153 30.059 14.43 41.75.227 2.559 3.637 42.172 3.637 80.719zm0 0"/></symbol></svg>